<svg xmlns="http://www.w3.org/2000/svg" viewBox="0 0 1023.34 689.34"><defs><style>.cls-1{fill:#771572;}.cls-2{fill:#231f20;}</style></defs><title>owl</title><g id="Layer_3" data-name="Layer 3"><path class="cls-1" d="M1023-.07C717.59,115.61,511.67,97.1,511.67,97.1S305.75,115.61.34-.07l90.24,162S-34.37,615.37,301.12,689.41c0,0-305.41-238.31-64.78-488.19,0,0,233.68,87.92,275.33,326.23C553.32,289.14,787,201.22,787,201.22c240.63,249.88-64.78,488.19-64.78,488.19,335.49-74,210.55-527.52,210.55-527.52Z"/><path class="cls-2" d="M842.53,352.77A148.79,148.79,0,0,0,799.8,248.23a488,488,0,0,0-54.56,29.39,91.37,91.37,0,1,1-132.32,118.6A409.21,409.21,0,0,0,579,448.69a149.23,149.23,0,0,0,263.55-95.92Z"/><path class="cls-2" d="M330,444.16A91.36,91.36,0,0,1,278.1,277.62a488,488,0,0,0-54.56-29.39A149.23,149.23,0,1,0,444.36,448.69a409.21,409.21,0,0,0-33.94-52.47A91.44,91.44,0,0,1,330,444.16Z"/><circle class="cls-2" cx="323.11" cy="450.4" r="34.65"/><circle class="cls-2" cx="695.61" cy="450.4" r="34.65"/></g></svg>